# AST/ASF file generated using VICON BodyLanguage
# -----------------------------------------------
:version 1.10
:name VICON
:units
  mass 1.0
  length 0.45
  angle deg
:documentation
   .ast/.asf automatically generated from VICON data using
   VICON BodyBuilder and BodyLanguage model FoxedUp or BRILLIANT.MOD
:root
   order TX TY TZ RX RY RZ
   axis XYZ
   position 0 0 0  
   orientation 0 0 0 
:bonedata
  begin
     id 1 
     name lhipjoint
     direction 0.714689 -0.624256 0.315473 
     length 2.45343 
     axis 0 0 0  XYZ
  end
  begin
     id 2 
     name lfemur
     direction 0.34202 -0.939693 0  
     length 6.59069  
     axis 0 0 20  XYZ
    dof rx ry rz
    limits (-160.0 20.0)
           (-70.0 70.0)
           (-60.0 70.0)
  end
  begin
     id 3 
     name ltibia
     direction 0.34202 -0.939693 0   
     length 6.73476   
     axis 0 0 20   XYZ
    dof rx
    limits (-10.0 170.0)
  end
  begin
     id 4 
     name lfoot
     direction 0.0718085 -0.197292 0.977711   
     length 1.52607   
     axis -90 7.62852e-016 20   XYZ
    dof rx rz
    limits (-45.0 90.0)
           (-70.0 20.0)
  end
  begin
     id 5 
     name ltoes
     direction 1.53553e-011 -4.22024e-011 1   
     length 0.777832   
     axis -90 7.62852e-016 20   XYZ
    dof rx
    limits (-90.0 20.0)
  end
  begin
     id 6 
     name rhipjoint
     direction -0.727419 -0.612432 0.309497   
     length 2.50079  
     axis 0 0 0  XYZ 
  end
  begin
     id 7 
     name rfemur
     direction -0.34202 -0.939693 0   
     length 6.51665   
     axis 0 0 -20   XYZ
    dof rx ry rz
    limits (-160.0 20.0)
           (-70.0 70.0)
           (-70.0 60.0)
  end
  begin
     id 8 
     name rtibia
     direction -0.34202 -0.939693 0   
     length 6.48919   
     axis 0 0 -20   XYZ
    dof rx
    limits (-10.0 170.0)
 end
 begin
     id 9 
     name rfoot
     direction -0.112205 -0.308282 0.944655   
     length 1.68717  
     axis -90 -7.62852e-016 -20   XYZ
    dof rx rz
    limits (-45.0 90.0)
           (-20.0 70.0)
  end
  begin
     id 10 
     name rtoes
     direction -1.53583e-011 -4.21993e-011 1   
     length 0.846859   
     axis -90 -7.62852e-016 -20   XYZ
    dof rx
    limits (-90.0 20.0)
  end
  begin
     id 11 
     name lowerback
     direction -0.00119603 0.996364 -0.0851956   
     length 1.67242   
     axis 0 0 0   XYZ
    dof rx ry rz
    limits (-20.0 45.0)
           (-30.0 30.0)
           (-30.0 30.0)
  end
  begin
     id 12 
     name upperback
     direction -0.00531001 0.998318 0.0577248   
     length 1.64819   
     axis 0 0 0   XYZ
    dof rx ry rz
    limits (-20.0 45.0)
           (-30.0 30.0)
           (-30.0 30.0)
  end
  begin
     id 13 
     name thorax
     direction -0.00653676 0.995132 0.0983291   
     length 1.67429   
     axis 0 0 0   XYZ
    dof rx ry rz
    limits (-20.0 45.0)
           (-30.0 30.0)
           (-30.0 30.0)
  end
  begin
     id 14 
     name lowerneck
     direction 0.0141424 0.999886 0.00525412   
     length 1.59623   
     axis 0 0 0   XYZ
    dof rx ry rz
    limits (-20.0 45.0)
           (-30.0 30.0)
           (-30.0 30.0)
  end
  begin
     id 15 
     name upperneck
     direction -0.0640064 0.987178 -0.146232   
     length 1.59576   
     axis 0 0 0   XYZ
    dof rx ry rz
    limits (-20.0 45.0)
           (-30.0 30.0)
           (-30.0 30.0)
  end
  begin
     id 16
     name head
     direction -0.0222942 0.998496 -0.0500859  
     length 1.60959  
     axis 0 0 0   XYZ
    dof rx ry rz
    limits (-20.0 45.0)
           (-30.0 30.0)
           (-30.0 30.0)
  end
  begin
     id 17 
     name lclavicle
     direction 0.908549 0.392612 0.142806  
     length 2.80649  
     axis 0 0 0   XYZ
    dof ry rz
    limits (-20.0 10.0)
           (0.0 20.0)
  end
  begin
     id 18 
     name lhumerus
     direction 1 -4.48968e-011 1.08832e-028   
     length 4.2884   
     axis -180 -30 -90   XYZ
    dof rx ry rz
    limits (-60.0 90.0)
           (-90.0 90.0)
           (-90.0 90.0)
  end
  begin
     id 19
     name lradius
     direction 1 -4.48952e-011 -3.02642e-028   
     length 3.06552   
     axis -180 -30 -90   XYZ
    dof rx
    limits (-10.0 170.0)
  end
  begin
     id 20
     name lwrist
     direction 1 -4.49014e-011 1.58672e-027   
     length 1.53276   
     axis -1.65735e-015 90 90   XYZ
    dof ry
    limits (-180.0 0.0)
 end
  begin
     id 21 
     name lhand
     direction 1 -4.48928e-011 3.17344e-027   
     length 0.753045   
     axis -2.02492e-015 90 90   XYZ
    dof rx rz
    limits (-90.0 90.0)
           (-45.0 45.0)
  end
  begin
     id 22 
     name lfingers
     direction 1 -4.48958e-011 6.34687e-027   
     length 0.607124   
     axis -4.04985e-015 90 90   XYZ
    dof rx
    limits (0.0 90.0)
  end
  begin
     id 23
     name lthumb
     direction 0.707107 -6.34905e-011 0.707107   
     length 0.871712   
     axis -90 45 2.85299e-015   XYZ
    dof rx rz
    limits (-45.0 45.0)
           (-45.0 45.0)
  end
  begin
     id 24 
     name rclavicle
     direction -0.885098 0.45949 0.0739604   
     length 2.9478  
     axis 0 0 0   XYZ 
    dof ry rz
    limits (-10.0 20.0)
           (-20.0 0.0)
  end
  begin
     id 25 
     name rhumerus
     direction -1 -4.4898e-011 -2.61739e-027  
     length 4.52172   
     axis -180 30 90   XYZ
    dof rx ry rz
    limits (-90.0 60.0)
           (-90.0 90.0)
           (-90.0 90.0)
  end
  begin
     id 26 
     name rradius
     direction -1 -4.48945e-011 9.02552e-028   
     length 2.8914   
     axis -180 30 90   XYZ
    dof rx
    limits (-10.0 170.0)
  end
  begin
     id 27 
     name rwrist
     direction -1 -4.49018e-011 1.58672e-027   
     length 1.4457   
     axis -1.65735e-015 -90 -90   XYZ
    dof ry
    limits (-180.0 0.0)
  end
  begin
     id 28
     name rhand
     direction -1 -4.48825e-011 3.17344e-027   
     length 0.680541   
     axis -2.02492e-015 -90 -90   XYZ
    dof rx rz
    limits (-90.0 90.0)
           (-45.0 45.0)
  end
  begin
     id 29
     name rfingers
     direction -1 -4.49067e-011 6.34687e-027   
     length 0.54867   
     axis -4.04985e-015 -90 -90   XYZ
    dof rx
    limits (0.0 90.0)
  end
  begin
     id 30
     name rthumb
     direction -0.707107 -6.34833e-011 0.707107   
     length 0.787783   
     axis -90 -45 -2.85299e-015   XYZ
    dof rx rz
    limits (-45.0 45.0)
           (-45.0 45.0)
  end
:hierarchy
  begin
    root lhipjoint rhipjoint lowerback
    lhipjoint lfemur
    lfemur ltibia
    ltibia lfoot
    lfoot ltoes
    rhipjoint rfemur
    rfemur rtibia
    rtibia rfoot
    rfoot rtoes
    lowerback upperback
    upperback thorax
    thorax lowerneck lclavicle rclavicle
    lowerneck upperneck
    upperneck head
    lclavicle lhumerus
    lhumerus lradius
    lradius lwrist
    lwrist lhand lthumb
    lhand lfingers
    rclavicle rhumerus
    rhumerus rradius
    rradius rwrist
    rwrist rhand rthumb
    rhand rfingers
  end

#!OML:ASF E:\emotionWalksFemale\Project 1\Capture day 1\Session 1\Female1.ASF
:FULLY-SPECIFIED
:DEGREES
16
root 9.20885 15.503 23.3274 179.212 -4.59267 -179.408
lowerback 7.46117 3.42718 3.4401
upperback -4.49967 4.90856 -0.050609
thorax -8.6571 2.15062 -2.68839
lowerneck -0.398308 16.8143 9.98918
upperneck 2.98224 22.6471 -8.49235
head 3.02036 11.2442 -3.00904
rclavicle 1.43249e-014 -8.94531e-016
rhumerus -48.3505 11.9589 -97.5617
rradius 35.5028
rwrist 13.9504
rhand 1.25773 -58.3315
rfingers 7.12502
rthumb 26.7945 -86.4536
lclavicle 1.43249e-014 -8.94531e-016
lhumerus -42.2583 -12.6373 94.9048
lradius 34.3366
lwrist -15.8569
lhand -5.33609 -38.4935
lfingers 7.12502
lthumb 20.4705 -9.55257
rfemur 2.7676 13.7407 26.8903
rtibia 13.6017
rfoot -15.9068 -32.5088
rtoes 4.92889
lfemur -6.16475 -21.5843 -21.8614
ltibia 23.4642
lfoot -17.9439 15.5879
ltoes -42.2419
17
root 9.21036 15.5027 23.3249 179.229 -4.6005 -179.434
lowerback 7.43731 3.44658 3.4074
upperback -4.51603 4.92864 -0.0620036
thorax -8.66117 2.16137 -2.68396
lowerneck -0.789708 16.8295 9.92448
upperneck 3.45973 22.6491 -8.23193
head 3.1885 11.2354 -2.87381
rclavicle -2.56308e-014 -9.93923e-017
rhumerus -48.3649 11.8545 -97.5249
rradius 35.4727
rwrist 14.0293
rhand 1.17183 -58.2466
rfingers 7.12502
rthumb 26.7123 -86.3812
lclavicle -2.56308e-014 -9.93923e-017
lhumerus -42.2624 -12.6711 94.9606
lradius 34.4893
lwrist -15.4901
lhand -4.60832 -38.1192
lfingers 7.12502
lthumb 21.1697 -9.25504
rfemur 2.7667 13.7673 26.8695
rtibia 13.6091
rfoot -16.0801 -32.483
rtoes 5.57727
lfemur -6.15179 -21.5807 -21.8781
ltibia 23.4316
lfoot -17.966 15.5698
ltoes -41.8418
18
root 9.21267 15.5012 23.3226 179.217 -4.58692 -179.459
lowerback 7.45255 3.44905 3.3273
upperback -4.51395 4.92609 -0.0295137
thorax -8.67735 2.16547 -2.6061
lowerneck -0.868777 16.8225 9.86783
upperneck 3.54303 22.6392 -8.24679
head 3.22105 11.2258 -2.86122
rclavicle -3.15943e-014 -9.83984e-015
rhumerus -48.4034 12.0171 -97.6039
rradius 35.4628
rwrist 13.6012
rhand 0.313385 -58.1161
rfingers 7.12502
rthumb 25.8905 -86.3734
lclavicle -3.15943e-014 -9.83984e-015
lhumerus -42.2643 -12.679 95.0159
lradius 34.4968
lwrist -15.3997
lhand -4.51368 -37.9063
lfingers 7.12502
lthumb 21.2606 -9.05237
rfemur 2.80382 13.7937 26.8534
rtibia 13.5909
rfoot -16.1712 -32.4622
rtoes 5.83666
lfemur -6.11655 -21.5908 -21.9082
ltibia 23.4246
lfoot -17.8425 15.6917
ltoes -42.3522
19
root 9.21472 15.5 23.3206 179.176 -4.60877 -179.421
lowerback 7.50507 3.41515 3.33586
upperback -4.50473 4.8873 0.0133542
thorax -8.70377 2.1468 -2.56382
lowerneck -0.543437 16.7854 9.89819
upperneck 3.1163 22.608 -8.57156
head 3.08005 11.2152 -3.0038
rclavicle -2.5755e-014 -3.27995e-015
rhumerus -48.4507 12.2624 -97.7347
rradius 35.5036
rwrist 13.0946
rhand -0.326895 -58.1363
rfingers 7.12502
rthumb 25.2772 -86.4817
lclavicle -2.5755e-014 -3.27995e-015
lhumerus -42.256 -12.6041 95.01
lradius 34.4808
lwrist -15.4084
lhand -4.47431 -37.7811
lfingers 7.12502
lthumb 21.2984 -8.93139
rfemur 2.88865 13.8716 26.9343
rtibia 13.5505
rfoot -16.1884 -32.558
rtoes 5.90862
lfemur -6.07221 -21.5994 -21.8767
ltibia 23.4363
lfoot -17.8976 15.7152
ltoes -43.0982
20
root 9.21692 15.5009 23.3205 179.183 -4.61169 -179.363
lowerback 7.56049 3.401 3.39668
upperback -4.53262 4.87823 0.0258328
thorax -8.7636 2.13637 -2.58829
lowerneck 0.156702 16.6765 10.0643
upperneck 2.28409 22.4936 -9.1154
head 2.79141 11.1762 -3.28052
rclavicle 6.02566e-015 -3.57812e-015
rhumerus -48.4222 12.152 -97.5768
rradius 35.5976
rwrist 13.8319
rhand 0.84426 -58.1644
rfingers 7.12502
rthumb 26.3988 -86.3465
lclavicle 6.02566e-015 -3.57812e-015
lhumerus -42.2527 -12.4954 94.9579
lradius 34.4275
lwrist -15.6101
lhand -4.6073 -37.8459
lfingers 7.12502
lthumb 21.1707 -8.98187
rfemur 2.91722 14.0097 27.0321
rtibia 13.4681
rfoot -16.0212 -32.6933
rtoes 5.72536
lfemur -6.11956 -21.5873 -21.79
ltibia 23.4714
lfoot -18.1221 15.6388
ltoes -42.9601
21
root 9.21919 15.5022 23.3204 179.17 -4.62027 -179.333
lowerback 7.62714 3.39455 3.42505
upperback -4.54618 4.87644 0.0315854
thorax -8.81596 2.13201 -2.60316
lowerneck 0.512399 16.6123 10.1162
upperneck 1.83333 22.4191 -9.35992
head 2.62773 11.1496 -3.41201
rclavicle -8.29926e-015 -1.54058e-014
rhumerus -48.5142 12.4123 -97.8322
rradius 35.5717
rwrist 13.0597
rhand -0.506226 -57.9099
rfingers 7.12502
rthumb 25.1054 -86.2794
lclavicle -8.29926e-015 -1.54058e-014
lhumerus -42.1981 -12.3729 94.8753
lradius 34.2531
lwrist -15.9662
lhand -5.03964 -38.2214
lfingers 7.12502
lthumb 20.7553 -9.31139
rfemur 2.97921 14.0945 27.0958
rtibia 13.3623
rfoot -15.8656 -32.7879
rtoes 5.50701
lfemur -6.15525 -21.5786 -21.7429
ltibia 23.5258
lfoot -18.2133 15.5435
ltoes -42.0048
22
root 9.22017 15.5008 23.3184 179.087 -4.67727 -179.309
lowerback 7.73379 3.35336 3.48173
upperback -4.53906 4.83318 0.027464
thorax -8.86888 2.10619 -2.64042
lowerneck 0.171575 16.6615 10.0559
upperneck 2.21338 22.4728 -9.17837
head 2.77244 11.1653 -3.30296
rclavicle 6.38099e-014 1.6201e-014
rhumerus -48.4886 12.4816 -97.8859
rradius 35.5358
rwrist 13.0078
rhand -0.530747 -57.9
rfingers 7.12502
rthumb 25.0819 -86.2728
lclavicle 6.38099e-014 1.6201e-014
lhumerus -42.2182 -12.3263 94.7911
lradius 34.1447
lwrist -16.1997
lhand -5.49325 -38.6891
lfingers 7.12502
lthumb 20.3194 -9.73209
rfemur 3.12988 14.1082 27.1655
rtibia 13.2833
rfoot -15.8492 -32.8782
rtoes 5.48632
lfemur -6.08703 -21.6202 -21.7461
ltibia 23.5721
lfoot -18.1089 15.5343
ltoes -41.5329
23
root 9.22056 15.4994 23.3176 179.089 -4.67889 -179.294
lowerback 7.77866 3.33881 3.52262
upperback -4.57162 4.81928 0.0155055
thorax -8.92751 2.09374 -2.67835
lowerneck -0.743752 16.818 9.79597
upperneck 3.31077 22.6423 -8.47578
head 3.15088 11.2249 -2.9365
rclavicle 1.18078e-013 1.38155e-014
rhumerus -48.4452 12.4592 -97.8958
rradius 35.4683
rwrist 12.9777
rhand -0.329586 -58.0927
rfingers 7.12502
rthumb 25.2746 -86.4384
lclavicle 1.18078e-013 1.38155e-014
lhumerus -42.3154 -12.3218 94.7484
lradius 34.1985
lwrist -16.2047
lhand -5.56218 -38.8453
lfingers 7.12502
lthumb 20.2532 -9.88126
rfemur 3.15406 14.1135 27.1859
rtibia 13.2204
rfoot -15.7394 -32.9157
rtoes 5.00211
lfemur -6.10104 -21.5959 -21.7252
ltibia 23.6047
lfoot -18.0698 15.5918
ltoes -42.0771
24
root 9.22163 15.4994 23.3171 179.174 -4.60854 -179.297
lowerback 7.7397 3.35929 3.54568
upperback -4.6131 4.84433 -0.0148294
thorax -8.94376 2.10164 -2.72556
lowerneck 0.159785 16.6532 10.0915
upperneck 2.21651 22.4637 -9.26653
head 2.78873 11.1585 -3.32967
rclavicle 4.01297e-014 -8.94531e-016
rhumerus -48.4283 12.4527 -97.9595
rradius 35.4583
rwrist 12.9077
rhand 0.347677 -58.4239
rfingers 7.12502
rthumb 25.9233 -86.6763
lclavicle 4.01297e-014 -8.94531e-016
lhumerus -42.3773 -12.3353 94.7045
lradius 34.3091
lwrist -16.0624
lhand -5.30288 -38.7942
lfingers 7.12502
lthumb 20.5024 -9.8567
rfemur 3.07464 14.1562 27.1564
rtibia 13.1674
rfoot -15.6603 -32.8864
rtoes 4.44527
lfemur -6.19739 -21.5217 -21.6913
ltibia 23.6218
lfoot -18.2093 15.6252
ltoes -42.4783
25
root 9.22283 15.5015 23.3134 179.208 -4.56148 -179.298
lowerback 7.69506 3.37836 3.59318
upperback -4.63803 4.86973 -0.0534399
thorax -8.93585 2.10924 -2.79397
lowerneck 0.52394 16.5755 10.1408
upperneck 1.73411 22.368 -9.47675
head 2.60781 11.1232 -3.45603
rclavicle 2.11084e-014 -5.66536e-015
rhumerus -48.4523 12.4303 -98.0435
rradius 35.4619
rwrist 12.8697
rhand 0.687862 -58.4802
rfingers 7.12502
rthumb 26.2491 -86.6846
lclavicle 2.11084e-014 -5.66536e-015
lhumerus -42.4627 -12.4709 94.7101
lradius 34.3508
lwrist -15.9103
lhand -5.21634 -38.9579
lfingers 7.12502
lthumb 20.5855 -10.0294
rfemur 3.07086 14.2376 27.1604
rtibia 13.1544
rfoot -15.7418 -32.8584
rtoes 4.6205
lfemur -6.20365 -21.4977 -21.6861
ltibia 23.6095
lfoot -18.3221 15.6796
ltoes -42.4581
26
root 9.22389 15.5045 23.3094 179.247 -4.55652 -179.31
lowerback 7.6466 3.3952 3.58357
upperback -4.6782 4.88662 -0.0690768
thorax -8.94941 2.11569 -2.8056
lowerneck 0.588499 16.5543 10.0965
upperneck 1.6794 22.3391 -9.42877
head 2.5682 11.1119 -3.44963
rclavicle -6.83322e-015 4.57205e-015
rhumerus -48.5217 12.3907 -98.0703
rradius 35.4577
rwrist 12.8745
rhand 0.665816 -58.4854
rfingers 7.12502
rthumb 26.228 -86.6929
lclavicle -6.83322e-015 4.57205e-015
lhumerus -42.5425 -12.5202 94.7307
lradius 34.264
lwrist -16.0971
lhand -5.51778 -39.3242
lfingers 7.12502
lthumb 20.2959 -10.3646
rfemur 3.05854 14.2974 27.1538
rtibia 13.1498
rfoot -15.8173 -32.8572
rtoes 4.9491
lfemur -6.20148 -21.5284 -21.6919
ltibia 23.5807
lfoot -18.2515 15.7167
ltoes -42.2391
27
root 9.22441 15.5055 23.3066 179.355 -4.53532 -179.368
lowerback 7.54359 3.40771 3.50053
upperback -4.72286 4.88631 -0.0826449
thorax -8.94288 2.11875 -2.76806
lowerneck 0.483713 16.5597 10.0306
upperneck 1.78107 22.3402 -9.33647
head 2.59734 11.1094 -3.40345
rclavicle -3.6887e-014 -1.32192e-014
rhumerus -48.5657 12.3775 -98.0714
rradius 35.4728
rwrist 12.9419
rhand 0.795859 -58.4792
rfingers 7.12502
rthumb 26.3524 -86.6682
lclavicle -3.6887e-014 -1.32192e-014
lhumerus -42.5975 -12.4481 94.7031
lradius 34.2286
lwrist -16.4107
lhand -5.82801 -39.4236
lfingers 7.12502
lthumb 19.9977 -10.4327
rfemur 2.96686 14.328 27.0614
rtibia 13.1099
rfoot -15.8857 -32.8887
rtoes 5.42472
lfemur -6.28343 -21.5704 -21.7197
ltibia 23.5572
lfoot -18.1095 15.7484
ltoes -42.3483
28
root 9.22563 15.5058 23.3043 179.407 -4.49171 -179.376
lowerback 7.47505 3.41786 3.46483
upperback -4.72312 4.89277 -0.073517
thorax -8.90599 2.12536 -2.73441
lowerneck 0.24967 16.5855 9.84076
upperneck 1.92491 22.3566 -9.12502
head 2.63341 11.1117 -3.29724
rclavicle -2.77056e-014 3.67752e-015
rhumerus -48.4799 12.3333 -98.0232
rradius 35.4112
rwrist 13.0695
rhand 0.987692 -58.4654
rfingers 7.12502
rthumb 26.5361 -86.6268
lclavicle -2.77056e-014 3.67752e-015
lhumerus -42.5584 -12.3707 94.6774
lradius 34.2545
lwrist -16.427
lhand -5.62958 -39.1481
lfingers 7.12502
lthumb 20.1884 -10.1772
rfemur 2.93409 14.3419 27.0387
rtibia 13.0687
rfoot -15.9527 -32.8863
rtoes 6.03802
lfemur -6.32364 -21.5232 -21.7063
ltibia 23.5446
lfoot -18.1249 15.7545
ltoes -42.5382
29
root 9.2268 15.5067 23.3018 179.403 -4.50185 -179.305
lowerback 7.46647 3.40882 3.51775
upperback -4.71344 4.8883 -0.0446936
thorax -8.88907 2.12151 -2.73154
lowerneck 0.0851911 16.5883 9.79305
upperneck 2.03242 22.3527 -9.09263
head 2.68222 11.1039 -3.26364
rclavicle -6.56362e-014 -7.05686e-015
rhumerus -48.3985 12.2655 -97.9605
rradius 35.3544
rwrist 13.1538
rhand 1.02393 -58.4051
rfingers 7.12502
rthumb 26.5708 -86.5612
lclavicle -6.56362e-014 -7.05686e-015
lhumerus -42.4788 -12.3271 94.7104
lradius 34.4907
lwrist -15.8185
lhand -4.32967 -38.3911
lfingers 7.12502
lthumb 21.4374 -9.55716
rfemur 2.96465 14.3268 27.1263
rtibia 13.0357
rfoot -15.9319 -32.8311
rtoes 5.99547
lfemur -6.32398 -21.5239 -21.6259
ltibia 23.544
lfoot -18.2483 15.687
ltoes -42.174
30
root 9.22643 15.5078 23.2997 179.427 -4.56502 -179.288
lowerback 7.47315 3.38169 3.57909
upperback -4.75741 4.85612 -0.0731384
thorax -8.93587 2.09818 -2.7934
lowerneck 0.0791812 16.5683 9.88021
upperneck 2.08618 22.3297 -9.12914
head 2.71094 11.0919 -3.2816
rclavicle 1.69961e-014 -3.67752e-015
rhumerus -48.4685 12.2469 -98.0266
rradius 35.3614
rwrist 13.116
rhand 0.96236 -58.3348
rfingers 7.12502
rthumb 26.5118 -86.4998
lclavicle 1.69961e-014 -3.67752e-015
lhumerus -42.5499 -12.3821 94.7548
lradius 34.9342
lwrist -14.9286
lhand -2.64905 -37.3615
lfingers 7.12502
lthumb 23.0507 -8.72006
rfemur 2.97664 14.3015 27.1469
rtibia 12.9941
rfoot -15.9113 -32.8279
rtoes 5.67684
lfemur -6.34584 -21.6394 -21.6044
ltibia 23.5471
lfoot -18.2939 15.6925
ltoes -42.2646
